<?xml version="1.0" encoding="utf-8"?>
<!-- Generator: Adobe Illustrator 15.0.0, SVG Export Plug-In . SVG Version: 6.00 Build 0)  -->
<!DOCTYPE svg PUBLIC "-//W3C//DTD SVG 1.1//EN" "http://www.w3.org/Graphics/SVG/1.1/DTD/svg11.dtd">
<svg version="1.1" id="Layer_1" xmlns="http://www.w3.org/2000/svg" xmlns:xlink="http://www.w3.org/1999/xlink" x="0px" y="0px"
	 width="16px" height="16px" viewBox="0 0 16 16" enable-background="new 0 0 16 16" xml:space="preserve">
<g>
	<path fill="#FFFFFF" d="M15.402,0.339h-4.754H0.612c0,0-0.001,0-0.003,0c-0.936,0-0.826,0.758-0.826,1.691
		c0,0.936-0.109,1.691,0.826,1.691h14.793c0.93,0,0.814-0.755,0.814-1.691C16.217,1.097,16.332,0.339,15.402,0.339z"/>
	<path fill="#FFFFFF" d="M15.402,6.31h-4.754H0.612c0,0-0.001,0-0.003,0c-0.936,0-0.826,0.757-0.826,1.69
		c0,0.936-0.109,1.69,0.826,1.69h14.793c0.93,0,0.814-0.755,0.814-1.69C16.217,7.066,16.332,6.31,15.402,6.31z"/>
	<path fill="#FFFFFF" d="M15.402,12.279h-4.754H0.612c0,0-0.001,0-0.003,0c-0.936,0-0.826,0.758-0.826,1.69
		c0,0.936-0.109,1.691,0.826,1.691h14.793c0.93,0,0.814-0.756,0.814-1.691C16.217,13.037,16.332,12.279,15.402,12.279z"/>
</g>
</svg>
