<?xml version="1.0" encoding="utf-8"?>
<!-- Generator: Adobe Illustrator 15.0.0, SVG Export Plug-In . SVG Version: 6.00 Build 0)  -->
<!DOCTYPE svg PUBLIC "-//W3C//DTD SVG 1.1//EN" "http://www.w3.org/Graphics/SVG/1.1/DTD/svg11.dtd">
<svg version="1.1" id="Layer_1" xmlns="http://www.w3.org/2000/svg" xmlns:xlink="http://www.w3.org/1999/xlink" x="0px" y="0px"
	 width="40px" height="40px" viewBox="0 0 40 40" enable-background="new 0 0 40 40" xml:space="preserve">
<polygon fill="#EE3226" points="26.411,8.646 24.46,1.124 18.978,8.144 11.33,1.939 11.079,11.027 3.511,10.567 7.823,16.961 
	0.077,21.98 9.235,25.238 6.021,33.413 13.62,31.234 15.661,38.876 21.021,31.91 28.524,38.086 28.847,28.865 36.542,29.271 
	32.257,23.021 39.919,18.129 30.665,14.762 33.863,6.448 "/>
<polygon fill="#9B1F1C" points="26.411,8.646 24.46,1.124 18.978,8.144 11.33,1.939 11.079,11.027 3.511,10.567 7.823,16.961 
	0.077,21.98 32.141,10.927 33.863,6.448 "/>
</svg>
