<?xml version="1.0" encoding="utf-8"?>
<!-- Generator: Adobe Illustrator 15.0.0, SVG Export Plug-In . SVG Version: 6.00 Build 0)  -->
<!DOCTYPE svg PUBLIC "-//W3C//DTD SVG 1.1//EN" "http://www.w3.org/Graphics/SVG/1.1/DTD/svg11.dtd">
<svg version="1.1" id="Layer_1" xmlns="http://www.w3.org/2000/svg" xmlns:xlink="http://www.w3.org/1999/xlink" x="0px" y="0px"
	 width="140px" height="140px" viewBox="0 0 140 140" enable-background="new 0 0 140 140" xml:space="preserve">
<g>
	<g>
		<path fill="#D6D6D6" d="M13.821,120.71c0.49-0.688,1.239-1.588,2.402-2.749c1.171-1.174,2.235-1.788,3.248-1.899
			c0.974-0.124,2.023,0.225,2.848,1.049c0.826,0.823,1.274,1.799,1.225,2.775c-0.05,1.249-0.726,2.497-1.849,3.623
			c-0.25,0.249-0.488,0.462-0.7,0.601l3.024,3.022l-1.887,1.887L13.821,120.71z M19.533,122.646c0.201-0.124,0.4-0.3,0.689-0.588
			c1.011-1.012,1.123-2.149,0.273-2.999c-0.774-0.774-1.773-0.699-2.736,0.263c-0.374,0.376-0.614,0.664-0.713,0.837L19.533,122.646
			z"/>
		<path fill="#D6D6D6" d="M21.08,113.45c0.513-0.71,1.337-1.685,2.362-2.711c1.25-1.25,2.312-1.937,3.387-2.062
			c0.912-0.11,1.787,0.214,2.56,0.986c1.063,1.063,1.038,2.564,0.578,3.551l0.036,0.038c0.824-0.351,1.699-0.127,2.688,0.436
			c1.222,0.7,2.572,1.55,3.061,1.712l-1.95,1.95c-0.375-0.125-1.263-0.587-2.539-1.388c-1.296-0.825-1.936-0.737-2.734,0.037
			l-0.563,0.564l3.311,3.311l-1.888,1.884L21.08,113.45z M26.59,115.189l0.75-0.75c0.951-0.951,1.04-1.986,0.303-2.723
			c-0.765-0.765-1.69-0.64-2.564,0.235c-0.461,0.461-0.698,0.75-0.799,0.926L26.59,115.189z"/>
		<path fill="#D6D6D6" d="M40.157,102.395c2.776,2.774,2.774,6.099,0.3,8.571c-2.487,2.489-5.848,2.077-8.258-0.334
			c-2.525-2.526-2.788-6.036-0.312-8.511C34.471,99.536,37.821,100.06,40.157,102.395z M34.172,108.583
			c1.663,1.661,3.6,2.049,4.875,0.773c1.287-1.289,0.798-3.248-0.839-4.888c-1.524-1.522-3.535-2.111-4.847-0.797
			C32.062,104.969,32.537,106.944,34.172,108.583z"/>
		<path fill="#D6D6D6" d="M37.293,97.013l5.136-5.134l1.563,1.562l-3.235,3.237l1.923,1.921l3.022-3.023l1.55,1.549l-3.024,3.026
			l3.386,3.384l-1.899,1.9L37.293,97.013z"/>
		<path fill="#D6D6D6" d="M45.776,88.532l8.422,8.42l-1.9,1.899l-8.42-8.42L45.776,88.532z"/>
		<path fill="#D6D6D6" d="M47.438,86.869l1.899-1.9l6.821,6.824l3.349-3.347l1.601,1.597l-5.25,5.249L47.438,86.869z"/>
		<path fill="#D6D6D6" d="M63.677,80.349l-3.096,3.1l1.998,1.997l3.461-3.46l1.562,1.562l-5.361,5.363l-8.419-8.424l5.185-5.185
			l1.562,1.562l-3.287,3.285l1.751,1.751l3.097-3.101L63.677,80.349z"/>
		<path fill="#D6D6D6" d="M63.114,71.416c0.486-0.687,1.237-1.585,2.4-2.748c1.175-1.175,2.235-1.787,3.248-1.899
			c0.974-0.125,2.023,0.224,2.848,1.05c0.827,0.823,1.274,1.798,1.226,2.773c-0.05,1.249-0.725,2.5-1.852,3.624
			c-0.25,0.251-0.486,0.461-0.699,0.599l3.024,3.024l-1.887,1.889L63.114,71.416z M68.822,73.354c0.201-0.125,0.4-0.299,0.687-0.588
			c1.014-1.013,1.126-2.148,0.277-2.998c-0.772-0.774-1.775-0.701-2.738,0.262c-0.375,0.375-0.612,0.661-0.713,0.836L68.822,73.354z
			"/>
		<path fill="#D6D6D6" d="M72.171,62.136l8.422,8.422l-1.9,1.901l-8.421-8.424L72.171,62.136z"/>
		<path fill="#D6D6D6" d="M88.186,62.512c-0.174,0.5-0.773,1.499-1.786,2.511c-2.911,2.912-6.234,2.587-8.633,0.19
			c-2.875-2.876-2.41-6.513,0.138-9.06c0.985-0.986,1.924-1.55,2.449-1.7l1.098,1.899c-0.534,0.213-1.224,0.6-1.909,1.287
			c-1.499,1.499-1.763,3.587,0.111,5.461c1.688,1.687,3.748,1.75,5.435,0.064c0.588-0.589,1.102-1.327,1.325-1.875L88.186,62.512z"
			/>
		<path fill="#D6D6D6" d="M85.687,48.62l3.234,3.237l3.137-3.136l-3.236-3.237l1.899-1.9l8.423,8.422l-1.902,1.9l-3.521-3.523
			l-3.136,3.136l3.523,3.523l-1.899,1.9l-8.425-8.423L85.687,48.62z"/>
		<path fill="#D6D6D6" d="M102.251,41.775l-3.097,3.1l1.998,1.999l3.459-3.462l1.563,1.562l-5.359,5.362l-8.423-8.423l5.186-5.185
			l1.563,1.561l-3.287,3.287l1.751,1.749l3.099-3.098L102.251,41.775z"/>
		<path fill="#D6D6D6" d="M99.162,35.367c0.513-0.71,1.337-1.684,2.363-2.71c1.248-1.25,2.31-1.939,3.384-2.062
			c0.913-0.112,1.788,0.213,2.563,0.986c1.062,1.062,1.037,2.561,0.574,3.549l0.038,0.038c0.823-0.349,1.698-0.125,2.687,0.436
			c1.225,0.701,2.572,1.551,3.06,1.713l-1.949,1.949c-0.375-0.125-1.263-0.587-2.536-1.386c-1.299-0.826-1.937-0.738-2.737,0.037
			l-0.562,0.563l3.312,3.311l-1.886,1.887L99.162,35.367z M104.674,37.104l0.748-0.749c0.95-0.951,1.037-1.988,0.301-2.724
			c-0.762-0.763-1.686-0.637-2.561,0.236c-0.462,0.462-0.699,0.75-0.801,0.926L104.674,37.104z"/>
		<path fill="#D6D6D6" d="M116.328,27.697l-3.099,3.101l1.999,1.999l3.46-3.463l1.563,1.563l-5.36,5.361l-8.422-8.422l5.186-5.186
			l1.562,1.563l-3.284,3.286l1.747,1.75l3.101-3.1L116.328,27.697z"/>
		<path fill="#D6D6D6" d="M121.451,24.176l-5.938-5.384l1.974-1.975l5.388,5.934L121.451,24.176z M125.035,26.388
			c-0.65,0.649-1.587,0.613-2.236-0.037c-0.674-0.674-0.674-1.597-0.013-2.261c0.662-0.664,1.563-0.639,2.249,0.025
			c0.65,0.649,0.699,1.573,0.025,2.248L125.035,26.388z"/>
		<path fill="#D6D6D6" d="M124.8,20.83l-5.938-5.387l1.975-1.974l5.386,5.936L124.8,20.83z M128.381,23.04
			c-0.647,0.649-1.586,0.613-2.235-0.037c-0.673-0.674-0.673-1.6-0.011-2.263c0.662-0.662,1.562-0.636,2.246,0.025
			c0.651,0.65,0.7,1.575,0.029,2.249L128.381,23.04z"/>
		<path fill="#D6D6D6" d="M128.146,17.482l-5.937-5.386l1.975-1.974l5.384,5.936L128.146,17.482z M131.729,19.692
			c-0.651,0.65-1.587,0.614-2.237-0.036c-0.676-0.675-0.676-1.599-0.013-2.263c0.663-0.662,1.563-0.636,2.25,0.025
			c0.652,0.649,0.697,1.573,0.025,2.249L131.729,19.692z"/>
	</g>
</g>
<polygon fill="#D6D6D6" points="3.158,140 0,136.521 0,140 "/>
<g>
	<path fill="#D6D6D6" d="M7.166,140h3.104c-0.081-0.246-0.219-0.483-0.426-0.69c-0.688-0.661-1.586-0.687-2.249-0.025
		C7.379,139.5,7.241,139.746,7.166,140z"/>
	<polygon fill="#D6D6D6" points="7.683,137.948 2.297,132.014 0.323,133.987 6.257,139.374 	"/>
</g>
<path fill="#D6D6D6" d="M9.606,136.027l-5.938-5.388l1.975-1.974l5.388,5.936L9.606,136.027z M13.191,138.236
	c-0.651,0.651-1.587,0.612-2.237-0.036c-0.674-0.675-0.674-1.598-0.011-2.262c0.661-0.662,1.562-0.637,2.248,0.024
	c0.648,0.649,0.699,1.574,0.025,2.248L13.191,138.236z"/>
<polygon fill="#D6D6D6" points="22.362,140 22.683,139.679 21.123,138.115 19.237,140 "/>
<polygon fill="#D6D6D6" points="29.699,140 24.468,134.769 22.569,136.67 25.899,140 "/>
<polygon fill="#D6D6D6" points="36.085,139.994 39.798,136.282 38.197,134.683 34.851,138.029 28.028,131.207 26.13,133.106 
	33.014,139.994 "/>
<path fill="#D6D6D6" d="M42.37,126.585l-3.099,3.1l2,2l3.462-3.461l1.562,1.563l-5.361,5.359l-8.423-8.42l5.187-5.188l1.562,1.563
	l-3.286,3.287l1.748,1.749l3.099-3.098L42.37,126.585z"/>
<path fill="#D6D6D6" d="M41.805,117.655c0.486-0.688,1.237-1.587,2.399-2.749c1.175-1.177,2.235-1.786,3.25-1.898
	c0.971-0.125,2.022,0.225,2.848,1.05c0.824,0.824,1.272,1.798,1.226,2.774c-0.052,1.247-0.728,2.496-1.851,3.623
	c-0.253,0.25-0.486,0.461-0.698,0.599l3.022,3.024l-1.886,1.887L41.805,117.655z M47.516,119.593c0.201-0.127,0.4-0.301,0.687-0.588
	c1.012-1.012,1.123-2.149,0.276-3c-0.775-0.773-1.775-0.7-2.738,0.265c-0.374,0.375-0.612,0.661-0.71,0.836L47.516,119.593z"/>
<path fill="#D6D6D6" d="M50.861,108.373l8.421,8.423l-1.898,1.899l-8.421-8.422L50.861,108.373z"/>
<path fill="#D6D6D6" d="M66.879,108.75c-0.174,0.5-0.774,1.499-1.787,2.512c-2.912,2.91-6.238,2.586-8.635,0.188
	c-2.874-2.874-2.41-6.51,0.139-9.061c0.987-0.986,1.922-1.549,2.448-1.698l1.102,1.899c-0.54,0.213-1.224,0.599-1.914,1.286
	c-1.498,1.501-1.761,3.587,0.113,5.461c1.685,1.688,3.75,1.751,5.436,0.063c0.588-0.588,1.1-1.326,1.324-1.874L66.879,108.75z"/>
<path fill="#D6D6D6" d="M64.375,94.859l3.238,3.235l3.138-3.137l-3.24-3.235l1.901-1.899l8.421,8.42l-1.897,1.899l-3.521-3.522
	l-3.139,3.137l3.524,3.522l-1.9,1.899l-8.421-8.42L64.375,94.859z"/>
<path fill="#D6D6D6" d="M80.942,88.014l-3.1,3.098l2.001,1.998l3.46-3.459l1.563,1.563l-5.363,5.359l-8.421-8.423l5.187-5.185
	l1.563,1.562l-3.288,3.287l1.75,1.749l3.099-3.098L80.942,88.014z"/>
<path fill="#D6D6D6" d="M77.855,81.604c0.512-0.71,1.336-1.685,2.359-2.709c1.252-1.248,2.313-1.939,3.389-2.062
	c0.911-0.113,1.786,0.212,2.561,0.986c1.062,1.061,1.035,2.561,0.575,3.549l0.037,0.036c0.823-0.348,1.698-0.122,2.687,0.438
	c1.224,0.701,2.572,1.551,3.062,1.711l-1.948,1.95c-0.376-0.123-1.266-0.585-2.539-1.387c-1.298-0.824-1.937-0.736-2.735,0.038
	l-0.563,0.563l3.312,3.31l-1.886,1.887L77.855,81.604z M83.363,83.344l0.751-0.751c0.949-0.948,1.038-1.986,0.301-2.724
	c-0.766-0.763-1.688-0.64-2.563,0.235c-0.461,0.463-0.7,0.751-0.8,0.926L83.363,83.344z"/>
<path fill="#D6D6D6" d="M95.02,73.936l-3.099,3.098l2.001,1.999l3.46-3.46l1.563,1.562l-5.362,5.359l-8.422-8.42l5.187-5.186
	l1.563,1.563l-3.288,3.287l1.75,1.75l3.099-3.1L95.02,73.936z"/>
<path fill="#D6D6D6" d="M100.142,70.416l-5.935-5.387l1.973-1.973l5.384,5.935L100.142,70.416z M103.727,72.626
	c-0.649,0.648-1.587,0.614-2.238-0.039c-0.673-0.674-0.673-1.596-0.009-2.259c0.662-0.664,1.559-0.638,2.247,0.024
	c0.648,0.65,0.699,1.574,0.024,2.249L103.727,72.626z"/>
<path fill="#D6D6D6" d="M103.488,67.066l-5.934-5.385l1.971-1.973l5.386,5.934L103.488,67.066z M107.075,69.277
	c-0.648,0.65-1.587,0.613-2.238-0.036c-0.675-0.675-0.675-1.599-0.011-2.262c0.662-0.662,1.561-0.638,2.249,0.025
	c0.649,0.65,0.699,1.574,0.023,2.249L107.075,69.277z"/>
<path fill="#D6D6D6" d="M106.834,63.719l-5.934-5.385l1.973-1.975l5.386,5.937L106.834,63.719z M110.424,65.931
	c-0.653,0.649-1.591,0.612-2.238-0.036c-0.676-0.676-0.675-1.601-0.013-2.263s1.56-0.638,2.251,0.024
	c0.646,0.649,0.697,1.576,0.021,2.251L110.424,65.931z"/>
<path fill="#D6D6D6" d="M110.448,49.009c0.486-0.687,1.238-1.586,2.397-2.75c1.174-1.174,2.238-1.787,3.25-1.899
	c0.976-0.125,2.025,0.225,2.851,1.049c0.826,0.825,1.273,1.8,1.225,2.776c-0.051,1.248-0.728,2.498-1.851,3.622
	c-0.25,0.25-0.488,0.463-0.699,0.6l3.023,3.024l-1.887,1.887L110.448,49.009z M116.16,50.947c0.2-0.126,0.4-0.3,0.686-0.588
	c1.014-1.013,1.124-2.149,0.276-2.999c-0.773-0.775-1.776-0.7-2.737,0.262c-0.374,0.375-0.612,0.662-0.713,0.836L116.16,50.947z"/>
<path fill="#D6D6D6" d="M117.705,41.75c0.511-0.711,1.34-1.686,2.362-2.709c1.253-1.25,2.312-1.939,3.387-2.063
	c0.913-0.112,1.785,0.212,2.563,0.986c1.06,1.063,1.034,2.563,0.572,3.549l0.037,0.037c0.824-0.348,1.701-0.123,2.688,0.438
	c1.223,0.701,2.573,1.55,3.061,1.711l-1.947,1.951c-0.378-0.126-1.265-0.588-2.538-1.388c-1.3-0.824-1.937-0.737-2.738,0.039
	l-0.561,0.562l3.312,3.312l-1.885,1.886L117.705,41.75z M123.216,43.489l0.75-0.75c0.949-0.95,1.039-1.987,0.302-2.725
	c-0.765-0.763-1.688-0.637-2.563,0.237c-0.462,0.462-0.701,0.75-0.8,0.925L123.216,43.489z"/>
<path fill="#D6D6D6" d="M136.784,30.695c2.772,2.775,2.772,6.098,0.3,8.572c-2.487,2.487-5.849,2.074-8.259-0.336
	c-2.524-2.525-2.789-6.038-0.313-8.509C131.1,27.833,134.446,28.358,136.784,30.695z M130.798,36.881
	c1.663,1.661,3.599,2.049,4.874,0.773c1.286-1.287,0.799-3.248-0.839-4.885c-1.524-1.524-3.533-2.111-4.847-0.799
	C128.686,33.271,129.163,35.245,130.798,36.881z"/>
<polygon fill="#D6D6D6" points="140.043,26.16 139.304,26.899 137.381,24.976 140.043,22.315 140.043,21.165 139.056,20.177 
	133.919,25.313 140.043,31.436 "/>
<g>
	<polygon fill="#D6D6D6" points="5.438,118.409 1.975,121.871 0,119.893 0,123.693 1.638,125.332 6.998,119.972 	"/>
	<polygon fill="#D6D6D6" points="0,119.846 3.074,116.771 1.527,115.222 0,116.749 	"/>
</g>
<path fill="#D6D6D6" d="M2.511,107.84c0.487-0.686,1.236-1.586,2.399-2.747c1.175-1.176,2.234-1.787,3.248-1.899
	c0.975-0.127,2.025,0.224,2.852,1.049c0.823,0.824,1.273,1.799,1.223,2.772c-0.049,1.25-0.725,2.501-1.849,3.625
	c-0.252,0.25-0.488,0.463-0.702,0.6l3.026,3.023l-1.888,1.888L2.511,107.84z M8.222,109.778c0.199-0.125,0.398-0.302,0.686-0.588
	c1.012-1.012,1.126-2.15,0.276-2.998c-0.773-0.774-1.776-0.701-2.739,0.263c-0.374,0.375-0.61,0.661-0.713,0.836L8.222,109.778z"/>
<path fill="#D6D6D6" d="M11.565,98.559l8.423,8.422l-1.899,1.899l-8.421-8.42L11.565,98.559z"/>
<path fill="#D6D6D6" d="M27.585,98.935c-0.178,0.501-0.775,1.5-1.789,2.513c-2.911,2.911-6.236,2.587-8.635,0.188
	c-2.874-2.874-2.409-6.512,0.141-9.061c0.987-0.985,1.922-1.549,2.446-1.697l1.098,1.898c-0.536,0.213-1.222,0.598-1.909,1.285
	c-1.499,1.502-1.763,3.589,0.113,5.463c1.686,1.687,3.747,1.749,5.436,0.063c0.588-0.588,1.098-1.325,1.323-1.875L27.585,98.935z"/>
<path fill="#D6D6D6" d="M25.082,85.044l3.237,3.236l3.137-3.137l-3.238-3.235l1.899-1.9l8.423,8.422l-1.899,1.899l-3.523-3.521
	l-3.137,3.135l3.523,3.523l-1.9,1.898l-8.419-8.42L25.082,85.044z"/>
<path fill="#D6D6D6" d="M41.646,78.199l-3.097,3.099l2,1.997l3.459-3.461l1.562,1.563l-5.359,5.362l-8.421-8.423l5.186-5.185
	l1.563,1.562l-3.287,3.286l1.75,1.749l3.098-3.098L41.646,78.199z"/>
<path fill="#D6D6D6" d="M38.558,71.79c0.514-0.71,1.338-1.686,2.363-2.709c1.251-1.25,2.314-1.938,3.386-2.063
	c0.913-0.113,1.787,0.212,2.56,0.986c1.063,1.063,1.039,2.56,0.575,3.547l0.038,0.036c0.825-0.346,1.7-0.123,2.688,0.439
	c1.224,0.702,2.573,1.549,3.058,1.712l-1.947,1.95c-0.374-0.125-1.264-0.588-2.536-1.387c-1.301-0.826-1.938-0.738-2.737,0.038
	l-0.562,0.561l3.31,3.313l-1.887,1.884L38.558,71.79z M44.07,73.529l0.749-0.75c0.948-0.95,1.038-1.989,0.3-2.725
	c-0.762-0.762-1.687-0.639-2.563,0.238c-0.461,0.46-0.698,0.749-0.799,0.925L44.07,73.529z"/>
<path fill="#D6D6D6" d="M55.725,64.121l-3.098,3.099l1.997,1.999l3.462-3.461l1.562,1.563l-5.359,5.36l-8.423-8.422l5.188-5.185
	l1.562,1.562l-3.287,3.287l1.748,1.749l3.099-3.098L55.725,64.121z"/>
<path fill="#D6D6D6" d="M60.848,60.6l-5.936-5.385l1.973-1.973l5.386,5.935L60.848,60.6z M64.431,62.811
	c-0.65,0.649-1.586,0.613-2.237-0.036c-0.674-0.675-0.674-1.598-0.011-2.262c0.663-0.663,1.562-0.637,2.249,0.024
	c0.649,0.65,0.699,1.574,0.026,2.249L64.431,62.811z"/>
<path fill="#D6D6D6" d="M64.195,57.251l-5.936-5.385l1.974-1.974l5.385,5.935L64.195,57.251z M67.78,59.462
	c-0.651,0.65-1.586,0.614-2.238-0.036c-0.674-0.674-0.674-1.599-0.013-2.262c0.665-0.662,1.563-0.638,2.251,0.025
	c0.649,0.65,0.698,1.576,0.024,2.249L67.78,59.462z"/>
<path fill="#D6D6D6" d="M67.541,53.905l-5.936-5.387l1.975-1.974l5.385,5.936L67.541,53.905z M71.129,56.116
	c-0.653,0.651-1.589,0.613-2.239-0.037c-0.675-0.674-0.672-1.599-0.009-2.261c0.659-0.663,1.559-0.638,2.249,0.023
	c0.647,0.65,0.698,1.575,0.023,2.249L71.129,56.116z"/>
<path fill="#D6D6D6" d="M71.153,39.194c0.488-0.687,1.234-1.586,2.401-2.749c1.172-1.173,2.234-1.786,3.247-1.899
	c0.977-0.124,2.024,0.225,2.852,1.05c0.822,0.824,1.27,1.801,1.222,2.774c-0.051,1.25-0.727,2.5-1.851,3.624
	c-0.25,0.25-0.486,0.463-0.697,0.6l3.022,3.023l-1.886,1.888L71.153,39.194z M76.864,41.131c0.2-0.124,0.397-0.298,0.687-0.587
	c1.012-1.011,1.125-2.149,0.274-2.998c-0.775-0.776-1.774-0.7-2.737,0.262c-0.374,0.374-0.611,0.661-0.711,0.836L76.864,41.131z"/>
<path fill="#D6D6D6" d="M78.412,31.937c0.512-0.712,1.336-1.686,2.36-2.711c1.249-1.249,2.311-1.937,3.387-2.062
	c0.913-0.113,1.789,0.212,2.561,0.987c1.063,1.062,1.038,2.561,0.577,3.548l0.035,0.037c0.825-0.349,1.7-0.124,2.687,0.437
	c1.225,0.701,2.574,1.55,3.061,1.712l-1.948,1.951c-0.375-0.127-1.264-0.587-2.536-1.387c-1.298-0.826-1.938-0.737-2.737,0.038
	l-0.563,0.562l3.313,3.312l-1.889,1.887L78.412,31.937z M83.922,33.675l0.749-0.751c0.951-0.949,1.038-1.986,0.3-2.723
	c-0.764-0.762-1.686-0.638-2.561,0.237c-0.462,0.462-0.699,0.75-0.802,0.925L83.922,33.675z"/>
<path fill="#D6D6D6" d="M97.491,20.881c2.771,2.774,2.769,6.097,0.296,8.571c-2.484,2.487-5.846,2.075-8.255-0.336
	c-2.527-2.524-2.79-6.037-0.314-8.51C91.805,18.02,95.152,18.544,97.491,20.881z M91.503,27.067
	c1.663,1.662,3.598,2.049,4.875,0.774c1.286-1.286,0.798-3.249-0.84-4.885c-1.522-1.524-3.535-2.111-4.847-0.8
	C89.391,23.455,89.865,25.431,91.503,27.067z"/>
<path fill="#D6D6D6" d="M94.625,15.499l5.137-5.135l1.559,1.562l-3.234,3.236l1.925,1.922l3.022-3.023l1.551,1.55l-3.024,3.023
	l3.387,3.386l-1.898,1.9L94.625,15.499z"/>
<path fill="#D6D6D6" d="M103.106,7.016l8.423,8.422l-1.901,1.9l-8.421-8.423L103.106,7.016z"/>
<path fill="#D6D6D6" d="M104.769,5.355l1.897-1.899l6.823,6.823l3.347-3.349l1.603,1.599l-5.251,5.249L104.769,5.355z"/>
<polygon fill="#D6D6D6" points="123.369,0.471 119.91,3.932 117.91,1.933 119.665,0.177 116.567,0.177 116.361,0.384 116.155,0.177 
	112.355,0.177 119.571,7.394 124.934,2.034 "/>
<path fill="#D6D6D6" d="M137.376,0.48c0.063-0.111,0.202-0.283,0.378-0.48h-2.795c-0.323,0.383-0.596,0.73-0.807,1.03L140,6.879
	V2.863c-0.045,0.033-0.094,0.075-0.138,0.103L137.376,0.48z"/>
<g>
	<path fill="#D6D6D6" d="M5.464,93.24c-0.686-0.662-1.586-0.688-2.25-0.025c-0.662,0.663-0.662,1.587,0.014,2.262
		c0.649,0.648,1.586,0.687,2.236,0.035l0.026-0.022C6.164,94.814,6.115,93.889,5.464,93.24z"/>
	<polygon fill="#D6D6D6" points="0,88.237 0,91.596 1.88,93.3 3.305,91.879 	"/>
</g>
<g>
	<polygon fill="#D6D6D6" points="1.265,82.596 0,83.859 0,85.213 5.226,89.953 6.65,88.528 	"/>
	<path fill="#D6D6D6" d="M8.813,89.891c-0.689-0.662-1.586-0.686-2.25-0.024C5.9,90.53,5.9,91.454,6.575,92.128
		c0.647,0.651,1.588,0.686,2.238,0.037l0.024-0.025C9.509,91.465,9.462,90.541,8.813,89.891z"/>
</g>
<path fill="#D6D6D6" d="M8.574,86.607l-5.936-5.387l1.975-1.976l5.383,5.937L8.574,86.607z M12.158,88.818
	c-0.649,0.648-1.586,0.614-2.237-0.039c-0.674-0.674-0.674-1.596-0.012-2.26c0.663-0.663,1.562-0.638,2.249,0.023
	c0.653,0.649,0.698,1.575,0.026,2.249L12.158,88.818z"/>
<path fill="#D6D6D6" d="M12.186,71.897c0.488-0.688,1.235-1.587,2.401-2.75c1.173-1.175,2.235-1.787,3.249-1.901
	c0.973-0.124,2.022,0.225,2.848,1.051c0.824,0.824,1.272,1.8,1.224,2.775c-0.05,1.248-0.725,2.497-1.851,3.624
	c-0.248,0.248-0.485,0.461-0.698,0.598l3.022,3.025l-1.885,1.886L12.186,71.897z M17.896,73.834c0.203-0.127,0.4-0.302,0.688-0.588
	c1.013-1.011,1.125-2.15,0.276-2.999c-0.775-0.775-1.775-0.7-2.738,0.263c-0.375,0.375-0.61,0.662-0.712,0.837L17.896,73.834z"/>
<path fill="#D6D6D6" d="M19.445,64.639c0.511-0.711,1.337-1.687,2.36-2.711c1.25-1.25,2.313-1.937,3.386-2.062
	c0.912-0.112,1.789,0.212,2.561,0.986c1.064,1.063,1.04,2.563,0.576,3.549l0.038,0.038c0.826-0.35,1.699-0.125,2.687,0.438
	c1.223,0.7,2.573,1.55,3.062,1.712l-1.951,1.949c-0.374-0.125-1.263-0.587-2.536-1.387c-1.299-0.825-1.939-0.737-2.736,0.038
	l-0.563,0.563l3.311,3.312l-1.888,1.884L19.445,64.639z M24.953,66.375l0.749-0.749c0.952-0.95,1.04-1.987,0.3-2.724
	c-0.76-0.763-1.686-0.638-2.561,0.237c-0.462,0.462-0.7,0.75-0.799,0.925L24.953,66.375z"/>
<path fill="#D6D6D6" d="M38.521,53.583c2.776,2.776,2.774,6.098,0.3,8.571c-2.486,2.488-5.848,2.076-8.258-0.334
	c-2.522-2.526-2.786-6.037-0.313-8.51C32.834,50.721,36.186,51.246,38.521,53.583z M32.537,59.769
	c1.661,1.661,3.599,2.05,4.872,0.773c1.289-1.286,0.799-3.249-0.838-4.885c-1.522-1.524-3.534-2.112-4.849-0.799
	C30.425,56.157,30.9,58.132,32.537,59.769z"/>
<path fill="#D6D6D6" d="M35.658,48.201l5.134-5.135l1.562,1.562l-3.235,3.235l1.922,1.925l3.026-3.025l1.55,1.55l-3.025,3.023
	l3.386,3.386l-1.897,1.9L35.658,48.201z"/>
<path fill="#D6D6D6" d="M44.139,39.718l8.423,8.422l-1.901,1.899l-8.421-8.42L44.139,39.718z"/>
<path fill="#D6D6D6" d="M45.8,38.058l1.9-1.901l6.821,6.823l3.347-3.348l1.6,1.6l-5.247,5.247L45.8,38.058z"/>
<path fill="#D6D6D6" d="M62.042,31.536l-3.097,3.1l1.998,1.999l3.461-3.461l1.56,1.563l-5.358,5.359l-8.424-8.421l5.188-5.185
	l1.562,1.562l-3.285,3.286l1.748,1.75l3.097-3.099L62.042,31.536z"/>
<path fill="#D6D6D6" d="M61.476,22.605c0.49-0.687,1.239-1.587,2.399-2.749c1.175-1.175,2.236-1.788,3.251-1.898
	c0.971-0.126,2.023,0.224,2.847,1.048c0.825,0.824,1.275,1.799,1.225,2.774c-0.05,1.249-0.725,2.5-1.851,3.624
	c-0.249,0.25-0.485,0.462-0.699,0.6l3.025,3.023l-1.887,1.887L61.476,22.605z M67.186,24.542c0.202-0.125,0.4-0.3,0.687-0.587
	c1.014-1.013,1.125-2.15,0.276-2.999c-0.775-0.774-1.774-0.701-2.737,0.262c-0.375,0.375-0.611,0.662-0.712,0.837L67.186,24.542z"/>
<path fill="#D6D6D6" d="M70.531,13.324l8.425,8.422l-1.903,1.9l-8.418-8.422L70.531,13.324z"/>
<path fill="#D6D6D6" d="M86.55,13.7c-0.174,0.5-0.773,1.498-1.787,2.511c-2.911,2.912-6.233,2.588-8.634,0.188
	c-2.875-2.875-2.409-6.51,0.139-9.059c0.986-0.987,1.922-1.549,2.449-1.7l1.098,1.899c-0.535,0.212-1.224,0.599-1.91,1.287
	c-1.5,1.5-1.763,3.587,0.112,5.461c1.685,1.687,3.75,1.749,5.436,0.062c0.587-0.586,1.099-1.324,1.325-1.875L86.55,13.7z"/>
<polygon fill="#D6D6D6" points="95.606,5.094 97.504,3.194 94.488,0.177 90.152,0.177 87.286,3.044 84.417,0.177 83.678,0.177 
	82.148,1.708 90.569,10.13 92.471,8.23 88.95,4.707 92.084,1.571 "/>
<polygon fill="#D6D6D6" points="97.832,0.177 99.178,1.523 100.523,0.177 "/>
<path fill="#D6D6D6" d="M3.329,64.32c0.208-0.137,0.449-0.348,0.698-0.6c1.126-1.124,1.799-2.374,1.849-3.622
	c0.051-0.976-0.398-1.951-1.224-2.774c-0.824-0.826-1.875-1.174-2.848-1.05C1.223,56.338,0.624,56.588,0,56.992v2.642
	c0.035-0.036,0.054-0.061,0.091-0.098c0.963-0.963,1.963-1.039,2.738-0.264c0.851,0.85,0.737,1.988-0.277,3
	c-0.286,0.288-0.486,0.462-0.686,0.587L0,60.993v3.774l4.463,4.464l1.888-1.886L3.329,64.32z"/>
<path fill="#D6D6D6" d="M3.414,53.664c0.513-0.711,1.337-1.686,2.362-2.708c1.25-1.25,2.311-1.939,3.386-2.063
	c0.911-0.113,1.787,0.211,2.561,0.986c1.064,1.062,1.036,2.563,0.574,3.547l0.039,0.038c0.825-0.348,1.699-0.123,2.685,0.438
	c1.226,0.701,2.575,1.55,3.062,1.711l-1.949,1.95c-0.375-0.125-1.263-0.587-2.538-1.388c-1.299-0.824-1.937-0.736-2.733,0.037
	l-0.564,0.563l3.309,3.311l-1.884,1.887L3.414,53.664z M8.924,55.402l0.749-0.749c0.95-0.951,1.038-1.987,0.3-2.724
	c-0.762-0.763-1.686-0.638-2.563,0.235c-0.46,0.463-0.698,0.75-0.798,0.927L8.924,55.402z"/>
<path fill="#D6D6D6" d="M22.491,42.609c2.774,2.775,2.774,6.097,0.3,8.571c-2.489,2.487-5.847,2.076-8.258-0.336
	c-2.524-2.525-2.786-6.036-0.314-8.509C16.805,39.747,20.152,40.272,22.491,42.609z M16.506,48.795
	c1.661,1.662,3.597,2.049,4.872,0.774c1.288-1.288,0.802-3.25-0.836-4.886c-1.524-1.524-3.535-2.112-4.851-0.799
	C14.394,45.183,14.871,47.157,16.506,48.795z"/>
<path fill="#D6D6D6" d="M19.628,37.226l5.134-5.135l1.562,1.563l-3.234,3.235l1.922,1.924l3.026-3.024l1.55,1.551l-3.025,3.022
	l3.387,3.388l-1.901,1.898L19.628,37.226z"/>
<path fill="#D6D6D6" d="M28.108,28.744l8.423,8.421l-1.9,1.9l-8.421-8.421L28.108,28.744z"/>
<path fill="#D6D6D6" d="M29.769,27.083l1.901-1.899l6.822,6.822l3.347-3.348l1.598,1.6l-5.245,5.247L29.769,27.083z"/>
<path fill="#D6D6D6" d="M46.011,20.562l-3.099,3.099l1.999,1.999l3.463-3.461l1.561,1.563l-5.358,5.36L36.152,20.7l5.187-5.186
	l1.562,1.562l-3.287,3.287l1.75,1.749l3.099-3.099L46.011,20.562z"/>
<path fill="#D6D6D6" d="M45.447,11.63c0.489-0.687,1.238-1.586,2.398-2.748c1.175-1.176,2.236-1.788,3.251-1.899
	c0.971-0.125,2.022,0.225,2.846,1.049c0.826,0.824,1.274,1.799,1.226,2.774c-0.05,1.248-0.726,2.499-1.851,3.623
	c-0.251,0.25-0.485,0.461-0.699,0.6l3.022,3.024l-1.887,1.886L45.447,11.63z M51.156,13.568c0.203-0.125,0.4-0.3,0.688-0.587
	c1.014-1.012,1.124-2.149,0.275-3c-0.775-0.775-1.773-0.7-2.736,0.263c-0.377,0.375-0.613,0.662-0.713,0.837L51.156,13.568z"/>
<path fill="#D6D6D6" d="M54.502,2.349l8.423,8.423l-1.901,1.898l-8.42-8.422L54.502,2.349z"/>
<path fill="#D6D6D6" d="M67.421,3.376c-1.687,1.688-3.75,1.625-5.436-0.063c-1.026-1.026-1.393-2.114-1.286-3.136h-2.505
	c-0.274,1.771,0.286,3.63,1.904,5.248c2.399,2.399,5.723,2.723,8.635-0.189c1.013-1.012,1.61-2.011,1.784-2.511l-1.772-1.224
	C68.521,2.05,68.009,2.789,67.421,3.376z"/>
<g>
	<polygon fill="#D6D6D6" points="0,35.604 0,39.016 2.157,40.974 3.58,39.55 	"/>
	<path fill="#D6D6D6" d="M5.743,40.912c-0.688-0.662-1.588-0.688-2.247-0.026c-0.665,0.664-0.665,1.587,0.011,2.263
		c0.648,0.65,1.586,0.686,2.236,0.036l0.025-0.025C6.441,42.486,6.392,41.562,5.743,40.912z"/>
</g>
<g>
	<polygon fill="#D6D6D6" points="1.543,30.267 0,31.811 0,32.632 5.504,37.626 6.929,36.201 	"/>
	<path fill="#D6D6D6" d="M9.09,37.563c-0.685-0.663-1.584-0.687-2.249-0.024c-0.662,0.663-0.662,1.586,0.013,2.261
		c0.649,0.65,1.587,0.687,2.236,0.038l0.025-0.025C9.789,39.138,9.74,38.213,9.09,37.563z"/>
</g>
<path fill="#D6D6D6" d="M8.85,34.278l-5.936-5.384l1.977-1.974l5.385,5.936L8.85,34.278z M12.436,36.49
	c-0.647,0.65-1.586,0.613-2.236-0.036c-0.676-0.674-0.672-1.6-0.013-2.262c0.665-0.662,1.565-0.637,2.252,0.024
	c0.651,0.65,0.697,1.575,0.021,2.249L12.436,36.49z"/>
<path fill="#D6D6D6" d="M27.186,4.85c0.487-0.688,1.236-1.587,2.396-2.75c1.178-1.174,2.239-1.787,3.25-1.899
	c0.974-0.125,2.025,0.224,2.85,1.049c0.826,0.824,1.271,1.8,1.226,2.775c-0.052,1.248-0.727,2.499-1.852,3.623
	c-0.249,0.25-0.489,0.463-0.699,0.6l3.024,3.022l-1.887,1.889L27.186,4.85z M32.895,6.786c0.201-0.124,0.399-0.298,0.687-0.586
	c1.014-1.011,1.126-2.151,0.276-3c-0.777-0.774-1.774-0.7-2.737,0.262c-0.375,0.376-0.613,0.664-0.713,0.837L32.895,6.786z"/>
<g>
	<polygon fill="#D6D6D6" points="41.854,0.177 37.026,0.177 42.75,5.901 44.637,4.015 41.327,0.705 	"/>
	<path fill="#D6D6D6" d="M44.746,0.177c1.204,0.75,2.057,1.192,2.416,1.313l1.314-1.313H44.746z"/>
</g>
<path fill="#D6D6D6" d="M54.599,140l-2.374-2.376c0.101-0.175,0.338-0.462,0.712-0.834c0.964-0.963,1.963-1.036,2.736-0.264
	c0.85,0.85,0.738,1.984-0.275,2.999c-0.218,0.218-0.38,0.358-0.536,0.475h2.843c0.618-0.853,0.982-1.753,1.017-2.649
	c0.051-0.977-0.399-1.948-1.221-2.774c-0.827-0.825-1.878-1.174-2.851-1.05c-1.014,0.114-2.074,0.726-3.25,1.899
	c-1.162,1.162-1.911,2.063-2.399,2.749L50.827,140H54.599z"/>
<path fill="#D6D6D6" d="M58.057,128.896l8.425,8.42l-1.903,1.898l-8.42-8.42L58.057,128.896z"/>
<path fill="#D6D6D6" d="M74.077,129.271c-0.176,0.499-0.775,1.497-1.789,2.51c-2.912,2.91-6.234,2.589-8.633,0.189
	c-2.876-2.874-2.409-6.51,0.139-9.059c0.987-0.988,1.922-1.55,2.448-1.699l1.098,1.897c-0.535,0.214-1.222,0.6-1.911,1.287
	c-1.5,1.498-1.763,3.587,0.114,5.462c1.686,1.687,3.75,1.75,5.435,0.061c0.587-0.585,1.099-1.323,1.326-1.874L74.077,129.271z"/>
<path fill="#D6D6D6" d="M71.572,115.378l3.24,3.237l3.135-3.136l-3.237-3.238l1.899-1.898l8.421,8.42l-1.899,1.902l-3.522-3.525
	l-3.135,3.138l3.522,3.521l-1.901,1.901l-8.419-8.423L71.572,115.378z"/>
<path fill="#D6D6D6" d="M88.139,108.532l-3.099,3.099l2,2l3.461-3.46l1.56,1.562l-5.357,5.36l-8.423-8.421l5.188-5.187l1.562,1.562
	l-3.287,3.287l1.751,1.749l3.098-3.099L88.139,108.532z"/>
<path fill="#D6D6D6" d="M85.05,102.125c0.515-0.712,1.339-1.686,2.362-2.711c1.251-1.25,2.313-1.937,3.389-2.062
	c0.909-0.114,1.784,0.213,2.559,0.986c1.063,1.063,1.038,2.562,0.579,3.548l0.035,0.038c0.825-0.351,1.7-0.124,2.687,0.438
	c1.224,0.701,2.574,1.55,3.062,1.713l-1.951,1.95c-0.374-0.128-1.263-0.587-2.536-1.388c-1.296-0.827-1.936-0.737-2.737,0.037
	l-0.56,0.562l3.31,3.312l-1.888,1.887L85.05,102.125z M90.561,103.862l0.75-0.75c0.95-0.949,1.036-1.986,0.3-2.723
	c-0.762-0.762-1.688-0.638-2.561,0.237c-0.461,0.461-0.7,0.747-0.8,0.922L90.561,103.862z"/>
<path fill="#D6D6D6" d="M102.215,94.455l-3.097,3.099l1.999,2.001l3.462-3.462l1.56,1.563l-5.357,5.36l-8.425-8.422l5.188-5.188
	l1.561,1.564l-3.286,3.285l1.752,1.748l3.097-3.098L102.215,94.455z"/>
<path fill="#D6D6D6" d="M107.339,90.934l-5.937-5.386l1.974-1.973l5.387,5.935L107.339,90.934z M110.924,93.145
	c-0.651,0.649-1.588,0.614-2.238-0.035c-0.673-0.674-0.673-1.6-0.011-2.264c0.661-0.661,1.563-0.636,2.249,0.025
	c0.648,0.651,0.7,1.577,0.024,2.247L110.924,93.145z"/>
<path fill="#D6D6D6" d="M110.688,87.587l-5.938-5.386l1.973-1.976l5.387,5.936L110.688,87.587z M114.273,89.798
	c-0.652,0.649-1.589,0.613-2.24-0.038c-0.672-0.674-0.672-1.598-0.01-2.261c0.661-0.662,1.561-0.638,2.25,0.024
	c0.647,0.651,0.698,1.575,0.023,2.249L114.273,89.798z"/>
<path fill="#D6D6D6" d="M114.032,84.24l-5.935-5.386l1.974-1.976l5.384,5.937L114.032,84.24z M117.618,86.451
	c-0.648,0.649-1.586,0.612-2.238-0.038c-0.673-0.674-0.673-1.599-0.011-2.262c0.663-0.661,1.561-0.636,2.252,0.025
	c0.646,0.648,0.695,1.575,0.021,2.249L117.618,86.451z"/>
<path fill="#D6D6D6" d="M117.645,69.53c0.487-0.687,1.236-1.587,2.401-2.75c1.173-1.174,2.237-1.787,3.248-1.9
	c0.975-0.124,2.022,0.225,2.849,1.051c0.823,0.824,1.272,1.8,1.226,2.773c-0.053,1.249-0.727,2.5-1.85,3.625
	c-0.249,0.249-0.487,0.462-0.699,0.599l3.023,3.024l-1.889,1.888L117.645,69.53z M123.355,71.465c0.2-0.124,0.4-0.299,0.689-0.585
	c1.009-1.012,1.123-2.151,0.273-3c-0.776-0.776-1.775-0.699-2.739,0.263c-0.37,0.374-0.612,0.663-0.71,0.837L123.355,71.465z"/>
<path fill="#D6D6D6" d="M124.904,62.271c0.51-0.712,1.335-1.686,2.359-2.71c1.251-1.25,2.313-1.938,3.387-2.062
	c0.914-0.113,1.788,0.211,2.563,0.986c1.062,1.063,1.038,2.562,0.574,3.548l0.037,0.037c0.825-0.348,1.699-0.124,2.686,0.438
	c1.224,0.702,2.575,1.549,3.063,1.711l-1.949,1.95c-0.376-0.125-1.26-0.587-2.537-1.387c-1.299-0.826-1.938-0.738-2.736,0.037
	l-0.562,0.563l3.313,3.311l-1.888,1.886L124.904,62.271z M130.413,64.009l0.747-0.75c0.954-0.949,1.04-1.986,0.303-2.724
	c-0.763-0.762-1.688-0.638-2.561,0.237c-0.463,0.462-0.701,0.749-0.804,0.926L130.413,64.009z"/>
<path fill="#D6D6D6" d="M140,58.731c-0.674-0.238-1.359-0.685-2.005-1.33c-1.637-1.637-2.112-3.611-0.812-4.911
	c0.775-0.776,1.797-0.875,2.816-0.522v-2.729c-1.472-0.119-2.979,0.391-4.29,1.703c-2.475,2.472-2.212,5.984,0.312,8.509
	c1.171,1.172,2.567,1.867,3.979,1.991V58.731z"/>
<polygon fill="#D6D6D6" points="77.591,140 79.469,138.123 77.905,136.562 74.467,140 "/>
<path fill="#D6D6D6" d="M88.064,140l-1.688-1.688l0.561-0.563c0.803-0.775,1.438-0.864,2.738-0.036
	c1.275,0.797,2.162,1.261,2.536,1.386l1.95-1.95c-0.487-0.161-1.839-1.01-3.063-1.711c-0.986-0.563-1.859-0.785-2.684-0.437
	l-0.04-0.041c0.464-0.986,0.488-2.484-0.572-3.546c-0.774-0.775-1.65-1.099-2.564-0.986c-1.073,0.123-2.136,0.811-3.385,2.062
	c-1.023,1.023-1.851,1.999-2.361,2.71l4.801,4.8H88.064z M83.489,133.701c0.875-0.875,1.799-0.998,2.561-0.237
	c0.737,0.737,0.651,1.774-0.298,2.726l-0.751,0.751l-2.311-2.313C82.79,134.45,83.026,134.163,83.489,133.701z"/>
<path fill="#D6D6D6" d="M96.657,127.532l-3.101,3.098l2,1.999l3.462-3.46l1.562,1.562l-5.363,5.36l-8.419-8.421l5.185-5.185
	l1.563,1.56l-3.286,3.286l1.749,1.75l3.1-3.099L96.657,127.532z"/>
<path fill="#D6D6D6" d="M101.778,124.01l-5.934-5.385l1.972-1.975l5.385,5.937L101.778,124.01z M105.363,126.221
	c-0.649,0.65-1.587,0.614-2.235-0.036c-0.678-0.675-0.678-1.601-0.013-2.263c0.662-0.661,1.562-0.636,2.248,0.026
	c0.651,0.648,0.697,1.574,0.023,2.249L105.363,126.221z"/>
<path fill="#D6D6D6" d="M105.126,120.661l-5.935-5.386l1.974-1.972l5.385,5.933L105.126,120.661z M108.711,122.873
	c-0.65,0.65-1.588,0.614-2.236-0.036c-0.676-0.675-0.676-1.599-0.009-2.262c0.659-0.662,1.558-0.639,2.245,0.025
	c0.65,0.65,0.698,1.574,0.026,2.247L108.711,122.873z"/>
<path fill="#D6D6D6" d="M108.475,117.315l-5.936-5.387l1.972-1.974l5.387,5.935L108.475,117.315z M112.059,119.526
	c-0.649,0.648-1.585,0.613-2.238-0.037c-0.673-0.674-0.673-1.598-0.011-2.262c0.664-0.663,1.562-0.638,2.249,0.023
	c0.651,0.651,0.697,1.575,0.026,2.249L112.059,119.526z"/>
<path fill="#D6D6D6" d="M112.086,102.605c0.487-0.688,1.235-1.588,2.399-2.749c1.176-1.174,2.235-1.788,3.251-1.9
	c0.972-0.124,2.021,0.225,2.848,1.052c0.824,0.823,1.273,1.797,1.222,2.774c-0.048,1.246-0.725,2.496-1.849,3.623
	c-0.251,0.248-0.487,0.461-0.7,0.598l3.026,3.025l-1.887,1.887L112.086,102.605z M117.797,104.542c0.2-0.126,0.398-0.3,0.685-0.588
	c1.014-1.011,1.124-2.148,0.277-3c-0.774-0.774-1.775-0.696-2.738,0.264c-0.376,0.375-0.611,0.662-0.712,0.838L117.797,104.542z"/>
<path fill="#D6D6D6" d="M119.343,95.348c0.514-0.712,1.339-1.688,2.362-2.712c1.25-1.251,2.313-1.938,3.387-2.062
	c0.91-0.111,1.786,0.212,2.562,0.986c1.063,1.063,1.037,2.563,0.573,3.549l0.039,0.036c0.826-0.349,1.698-0.124,2.685,0.439
	c1.226,0.7,2.574,1.549,3.063,1.711l-1.949,1.949c-0.376-0.125-1.266-0.586-2.536-1.386c-1.301-0.826-1.938-0.738-2.738,0.036
	l-0.563,0.565l3.312,3.312l-1.884,1.884L119.343,95.348z M124.851,97.084l0.751-0.749c0.95-0.949,1.038-1.988,0.301-2.725
	c-0.761-0.762-1.686-0.638-2.561,0.237c-0.462,0.462-0.698,0.751-0.802,0.926L124.851,97.084z"/>
<path fill="#D6D6D6" d="M138.42,84.291c2.776,2.774,2.774,6.099,0.301,8.57c-2.486,2.487-5.848,2.078-8.26-0.335
	c-2.523-2.524-2.785-6.037-0.313-8.509C132.735,81.43,136.083,81.954,138.42,84.291z M132.438,90.479
	c1.661,1.661,3.597,2.048,4.871,0.773c1.288-1.289,0.8-3.251-0.838-4.887c-1.522-1.523-3.534-2.112-4.849-0.8
	C130.323,86.865,130.798,88.841,132.438,90.479z"/>
<polygon fill="#D6D6D6" points="140.043,79.597 139.017,78.571 140.043,77.546 140.043,74.425 135.558,78.909 140.043,83.394 "/>
<g>
	<polygon fill="#D6D6D6" points="111.174,140 114.497,140 115.018,139.479 115.538,140 119.335,140 112.016,132.681 
		110.117,134.581 113.356,137.818 	"/>
	<polygon fill="#D6D6D6" points="109.264,140 106.981,137.717 105.081,139.617 105.464,140 	"/>
</g>
<path fill="#D6D6D6" d="M123.545,130.872l-3.096,3.1l1.998,1.999l3.458-3.462l1.563,1.562l-5.358,5.364l-8.423-8.425l5.186-5.185
	l1.565,1.562l-3.29,3.286l1.752,1.75l3.095-3.101L123.545,130.872z"/>
<path fill="#D6D6D6" d="M120.457,124.463c0.514-0.712,1.339-1.686,2.363-2.71c1.25-1.25,2.311-1.938,3.388-2.061
	c0.91-0.114,1.786,0.211,2.56,0.985c1.062,1.061,1.037,2.561,0.575,3.547l0.037,0.038c0.824-0.347,1.698-0.124,2.687,0.439
	c1.224,0.7,2.572,1.549,3.06,1.711l-1.948,1.95c-0.375-0.126-1.264-0.589-2.534-1.387c-1.301-0.826-1.94-0.738-2.738,0.035
	l-0.563,0.566l3.312,3.309l-1.886,1.886L120.457,124.463z M125.967,126.202l0.751-0.75c0.948-0.95,1.038-1.988,0.302-2.723
	c-0.762-0.763-1.687-0.64-2.564,0.234c-0.46,0.463-0.699,0.749-0.799,0.927L125.967,126.202z"/>
<polygon fill="#D6D6D6" points="140,118.448 139.984,118.433 136.525,121.893 134.524,119.894 137.623,116.793 136.072,115.244 
	132.975,118.347 131.226,116.593 134.515,113.311 132.951,111.745 127.767,116.932 136.188,125.354 140,121.541 "/>
<polygon fill="#D6D6D6" points="140,107.256 138.782,105.914 136.811,107.888 140,110.781 "/>
</svg>
