<?xml version="1.0" encoding="utf-8"?>
<!-- Generator: Adobe Illustrator 15.0.0, SVG Export Plug-In . SVG Version: 6.00 Build 0)  -->
<!DOCTYPE svg PUBLIC "-//W3C//DTD SVG 1.1//EN" "http://www.w3.org/Graphics/SVG/1.1/DTD/svg11.dtd">
<svg version="1.1" id="Layer_1" xmlns="http://www.w3.org/2000/svg" xmlns:xlink="http://www.w3.org/1999/xlink" x="0px" y="0px"
	 width="40px" height="40px" viewBox="0 0 40 40" enable-background="new 0 0 40 40" xml:space="preserve">
<g>
	<g>
		<g>
			<path fill="#FFFFFF" d="M30.829,21.363c0,0-0.186-0.361-0.488-0.953c-1.391-2.723-5.288-10.382-5.506-11.25
				c-0.259-1.059-0.327-8.505-0.327-8.505s-4.88-3.275-6.731,5.443c-1.855,8.72,0.56,9.814,0.56,9.814l-1.667-0.025L4.929,14.69
				c-1.429-0.146-2.723,1.06-2.886,2.693c-0.171,1.632,0.853,3.074,2.283,3.218l3.508,0.358l-0.019,0.132l-4.421-0.454
				c-1.631-0.164-3.094,1.026-3.254,2.654c-0.167,1.635,1.019,3.093,2.651,3.263l0.376,0.034c-1.195,0.193-2.188,1.22-2.335,2.617
				c-0.164,1.635,0.881,3.073,2.328,3.225l0.918,0.093c-0.908,0.335-1.641,1.334-1.769,2.594c-0.159,1.635,0.729,3.058,1.999,3.188
				l7.322,0.749c2.793,0.461,6.115,0.893,8.77,0.893c3.99,0,6.51-0.717,8.492-1.334c1.075-0.333,1.988-0.634,2.893-0.774
				c0.345,0,0.479-0.307,0.479-0.518V21.93C32.265,21.184,30.829,21.581,30.829,21.363z"/>
			<path fill="#FFFFFF" d="M34.715,38.934c-0.856,0-1.554-0.697-1.554-1.559V21.05c0-0.857,0.697-1.555,1.554-1.555h3.604
				c0.86,0,1.557,0.697,1.557,1.555v16.325c0,0.861-0.696,1.559-1.557,1.559H34.715z"/>
		</g>
	</g>
	<path fill="#CCCCCC" d="M0.833,29.206c-0.164,1.635,0.881,3.073,2.328,3.225l0.918,0.093c-0.908,0.335-1.641,1.334-1.769,2.594
		c-0.159,1.635,0.729,3.058,1.999,3.188l7.322,0.749c2.793,0.461,6.115,0.893,8.77,0.893c3.99,0,6.51-0.717,8.492-1.334
		c1.075-0.333,1.988-0.634,2.893-0.774c0.345,0,0.479-0.307,0.479-0.518C32.265,37.321,0.98,27.809,0.833,29.206z"/>
</g>
</svg>
